<?xml version="1.0" encoding="UTF-8"?>
<svg version="1.1" xmlns="http://www.w3.org/2000/svg" width="2000" height="2000">
<path d="M0 0 C660 0 1320 0 2000 0 C2000 660 2000 1320 2000 2000 C1340 2000 680 2000 0 2000 C0 1340 0 680 0 0 Z " fill="#FEFEFE" transform="translate(0,0)"/>
<path d="M0 0 C6.07909547 0.08933293 12.15699343 0.06988789 18.23655736 0.05331763 C30.66437764 0.02317149 43.08937514 0.0996545 55.51637411 0.23771799 C67.81363818 0.37398876 80.10972554 0.46236879 92.40773916 0.4873327 C93.55627028 0.48970422 93.55627028 0.48970422 94.72800405 0.49212365 C98.61682241 0.49990572 102.50564179 0.50683739 106.3944623 0.51344179 C133.9124577 0.56170369 161.42891867 0.71652522 188.94605017 0.93440187 C215.67220435 1.14577086 242.39793809 1.30862992 269.1247611 1.40608156 C269.94913266 1.40910666 270.77350421 1.41213176 271.62285672 1.41524853 C279.9018191 1.44557547 288.18078473 1.47491905 296.45975316 1.5035423 C313.32374834 1.56186931 330.18771617 1.6267581 347.0516715 1.69561708 C347.82698482 1.69877475 348.60229814 1.70193242 349.40110579 1.70518577 C401.14232083 1.91666754 452.88265051 2.2815712 504.62280798 2.66950929 C503.36168811 5.88465202 502.04584799 8.83687015 500.25952673 11.79450929 C499.79199987 12.57181398 499.32447302 13.34911867 498.84277868 14.14997804 C498.33706335 14.98142335 497.83134802 15.81286867 497.31030798 16.66950929 C496.7768778 17.5525171 496.24344763 18.43552492 495.6938529 19.34529054 C491.45569566 26.34310615 487.15191624 33.29976317 482.83252478 40.24763429 C478.21124807 47.69064419 473.66133297 55.175921 469.12280798 62.66950929 C463.58229404 71.8163723 458.0016861 80.93639336 452.35840368 90.02033937 C447.88269972 97.2313889 443.46909654 104.47920523 439.06348181 111.73322999 C434.60952825 119.06161219 430.12240766 126.36907771 425.62280798 133.66950929 C420.59865188 141.82165238 415.59461151 149.98533042 410.62280798 158.16950929 C404.98059588 167.45726026 399.29227652 176.71593433 393.59033728 185.96711671 C389.18159224 193.12446124 384.79895213 200.2970908 380.43530798 207.48200929 C376.09468533 214.62872791 371.72271453 221.7543942 367.31030798 228.85700929 C362.19322757 237.09501149 357.1473228 245.37489064 352.12280798 253.66950929 C346.58210837 262.81626117 341.00168759 271.93639096 335.35840368 281.02033937 C330.88269972 288.2313889 326.46909654 295.47920523 322.06348181 302.73322999 C317.60952825 310.06161219 313.12240766 317.36907771 308.62280798 324.66950929 C303.59865188 332.82165238 298.59461151 340.98533042 293.62280798 349.16950929 C287.98059588 358.45726026 282.29227652 367.71593433 276.59033728 376.96711671 C272.18159216 384.12446136 267.79896852 391.29710066 263.43530798 398.48200929 C258.51337046 406.58546948 253.54589341 414.65903473 248.542974 422.71272218 C243.6499867 430.59957841 238.82918625 438.52975348 234.02710485 446.47224367 C233.18502478 447.86153078 233.18502478 447.86153078 232.32593298 449.27888429 C231.82738806 450.10356203 231.32884314 450.92823976 230.81519079 451.77790773 C229.62280798 453.66950929 229.62280798 453.66950929 228.62280798 454.66950929 C225.69529211 454.7685796 222.79133889 454.80125265 219.86335421 454.79255712 C218.92852971 454.79371096 217.99370522 454.79486481 217.03055272 454.79605362 C213.85652948 454.79872835 210.68255564 454.79419112 207.50853491 454.78976381 C205.22665713 454.79019934 202.9447794 454.7910739 200.66290194 454.79235297 C194.36008465 454.79460157 188.05728418 454.7905717 181.75446904 454.78557491 C175.66557162 454.78122984 169.57667412 454.78253409 163.48777562 454.78325676 C151.02642567 454.7845728 138.565081 454.78122114 126.10373259 454.77523935 C113.75958178 454.76932896 101.41543317 454.76547475 89.07128096 454.76438653 C88.30469993 454.7643178 87.5381189 454.76424906 86.74830814 454.76417823 C82.85547226 454.76383991 78.96263638 454.76353853 75.0698005 454.76325136 C47.47329173 454.76114911 19.87678583 454.75440664 -7.71972132 454.74494874 C-34.53482533 454.73576924 -61.34992855 454.72868321 -88.16503382 454.72444093 C-89.40415591 454.72424364 -89.40415591 454.72424364 -90.66831077 454.72404237 C-98.9639113 454.72272389 -107.25951184 454.72144807 -115.55511238 454.72020351 C-132.45527321 454.71766707 -149.35543398 454.71484582 -166.25559473 454.71185243 C-167.42124186 454.7116465 -167.42124186 454.7116465 -168.61043741 454.7114364 C-220.53269016 454.70223064 -272.45494126 454.6863641 -324.37719202 454.66950929 C-322.50198693 450.86020838 -320.40513895 447.20208244 -318.25219202 443.54450929 C-317.82261194 442.81441652 -317.39303186 442.08432374 -316.95043421 441.33210695 C-311.57612301 432.25015417 -306.01082382 423.2852555 -300.46703577 414.30622804 C-296.68158718 408.17235806 -292.93005681 402.01844459 -289.18969202 395.85700929 C-284.84922814 388.71019526 -280.47709755 381.58462274 -276.06469202 374.48200929 C-270.94761161 366.24400709 -265.90170684 357.96412794 -260.87719202 349.66950929 C-255.33649241 340.52275741 -249.75607163 331.40262762 -244.11278772 322.31867921 C-239.63708376 315.10762968 -235.22348058 307.85981335 -230.81786585 300.60578859 C-226.36391229 293.2774064 -221.8767917 285.96994088 -217.37719202 278.66950929 C-212.35303593 270.51736621 -207.34899555 262.35368816 -202.37719202 254.16950929 C-196.73497992 244.88175832 -191.04666056 235.62308425 -185.34472132 226.37190187 C-180.93597628 219.21455734 -176.55333617 212.04192778 -172.18969202 204.85700929 C-167.84906938 197.71029067 -163.47709857 190.58462438 -159.06469202 183.48200929 C-153.94761161 175.24400709 -148.90170684 166.96412794 -143.87719202 158.66950929 C-138.33649241 149.52275741 -132.75607163 140.40262762 -127.11278772 131.31867921 C-122.63708376 124.10762968 -118.22348058 116.85981335 -113.81786585 109.60578859 C-109.36391229 102.2774064 -104.8767917 94.96994088 -100.37719202 87.66950929 C-95.35303593 79.51736621 -90.34899555 71.35368816 -85.37719202 63.16950929 C-79.81468846 54.01296805 -74.21224786 44.88163133 -68.58422327 35.76521242 C-67.97965296 34.78488039 -67.37508265 33.80454835 -66.75219202 32.79450929 C-66.0750597 31.80061976 -65.39792738 30.80673023 -64.7002759 29.78272283 C-62.72038109 26.6250645 -61.73278103 23.61458111 -60.72798204 20.03425443 C-51.7182888 -6.30929685 -22.86866912 -0.42133146 0 0 Z " fill="#000000" transform="translate(1340.3771920204163,771.3304907083511)"/>
<path d="M0 0 C5.01074875 0.0779586 10.02109547 0.05141265 15.03228033 0.03775907 C23.70699201 0.028334 32.37926123 0.08465599 41.05335844 0.18604016 C53.59409841 0.3325226 66.13366106 0.37922465 78.67516378 0.40182401 C99.02367217 0.44119004 119.3708795 0.5608956 139.71868169 0.73127103 C159.4809854 0.8965716 179.24293533 1.02394366 199.00579107 1.10041165 C200.2245823 1.10514068 201.44337353 1.1098697 202.69909783 1.11474203 C208.81360377 1.13823322 214.92811222 1.16097984 221.04262233 1.18335629 C271.74437908 1.36986548 322.44472367 1.68681936 373.14519536 2.08918118 C371.64544262 5.95707405 369.89273083 9.35103082 367.72332036 12.89386868 C367.38705129 13.44548673 367.05078222 13.99710477 366.70432317 14.56543851 C365.60483381 16.36721827 364.5000492 18.16568689 363.39519536 19.96418118 C362.62212367 21.22876834 361.84942311 22.49358244 361.07708013 23.75861478 C359.51123546 26.32237295 357.94348637 28.88495066 356.37419927 31.44660306 C353.82536974 35.60896933 351.29213829 39.78074614 348.75945318 43.95295072 C342.58175163 54.12618958 336.35025332 64.26584161 330.10588872 74.39826322 C325.18497753 82.3873955 320.29911184 90.3972115 315.42766607 98.41657376 C311.08906056 105.55297732 306.71601531 112.66767106 302.33269536 119.77668118 C296.37171478 129.4459462 290.4595302 139.14350703 284.57326543 148.85831571 C278.81213601 158.36484357 273.00022942 167.83900762 267.16472661 177.30011868 C262.29084288 185.20940742 257.45946704 193.14355119 252.64519536 201.08918118 C246.52753057 211.18597343 240.36225125 221.25206099 234.16472661 231.30011868 C229.29084267 239.20940776 224.45949379 247.14356712 219.64519536 255.08918118 C213.46019245 265.29682686 207.22856665 275.47452991 200.96477544 285.63410306 C196.04085518 293.62379132 191.14787395 301.63179125 186.27532232 309.65290189 C185.23292522 311.36885795 184.1540684 313.06315763 183.04123437 314.73429418 C181.48424939 317.48925262 180.64772675 319.56328274 179.75374162 322.52857137 C177.71252134 328.21520942 175.24607854 332.65889704 170.14519536 336.08918118 C158.72530207 339.47651046 146.06962452 338.40816251 134.29039073 338.17836237 C129.27964198 338.10040377 124.26929526 338.12694972 119.2581104 338.1406033 C110.58339872 338.15002837 101.9111295 338.09370638 93.23703229 337.99232221 C80.69629232 337.84583977 68.15672967 337.79913772 55.61522695 337.77653836 C35.26671856 337.73717233 14.91951123 337.61746677 -5.42829096 337.44709134 C-25.19059467 337.28179077 -44.9525446 337.15441871 -64.71540034 337.07795072 C-65.93419157 337.07322169 -67.1529828 337.06849267 -68.4087071 337.06362034 C-74.52321305 337.04012915 -80.63772149 337.01738253 -86.7522316 336.99500608 C-137.45398835 336.80849689 -188.15433294 336.49154301 -238.85480464 336.08918118 C-237.46371878 332.52360507 -235.91920383 329.32645622 -233.94074214 326.04621243 C-233.35309077 325.06870023 -232.7654394 324.09118802 -232.15998042 323.08405423 C-231.52302241 322.03387113 -230.8860644 320.98368802 -230.22980464 319.90168118 C-229.22989497 318.24422879 -229.22989497 318.24422879 -228.2097851 316.55329251 C-222.85189904 307.68205793 -217.42279906 298.85463468 -211.97931635 290.03571439 C-207.06769203 282.0755161 -202.20120638 274.08915157 -197.35480464 266.08918118 C-191.16643385 255.87549908 -184.93115171 245.69192634 -178.66339839 235.52668118 C-174.37061004 228.56150483 -170.10257807 221.58189262 -165.85480464 214.58918118 C-160.94624218 206.50867471 -156.00442285 198.44940508 -151.04230464 190.40168118 C-145.08132405 180.73241617 -139.16913947 171.03485534 -133.2828747 161.32004666 C-127.52174528 151.8135188 -121.70983869 142.33935474 -115.87433589 132.87824368 C-111.00045194 124.96895461 -106.16910306 117.03479525 -101.35480464 109.08918118 C-95.16622138 98.87562657 -88.9311531 88.69192859 -82.66339839 78.52668118 C-78.37060988 71.56150458 -74.10261107 64.58187277 -69.85480464 57.58918118 C-64.20344504 48.28677141 -58.51103314 39.01018865 -52.79816401 29.74543118 C-52.18392573 28.74898587 -51.56968745 27.75254056 -50.93683589 26.72589993 C-50.29360282 25.76010951 -49.65036976 24.79431909 -48.98764479 23.79926229 C-47.3128715 21.12151973 -46.32967046 18.59246796 -45.41375983 15.57540441 C-38.33528088 -4.19777213 -17.44375724 -0.34030889 0 0 Z " fill="#000000" transform="translate(771.8548046350479,889.9108188152313)"/>
<path d="M0 0 C2.4580321 0.08844961 4.91597808 0.17931948 7.37384033 0.27236938 C9.99670227 0.27943126 12.61961355 0.27544314 15.2424469 0.26130676 C20.86503687 0.24827033 26.48030975 0.32584778 32.10105705 0.46725273 C40.22609649 0.67152541 48.34764254 0.73563925 56.47497088 0.76695252 C69.66266282 0.821507 82.84646224 0.98741214 96.03204346 1.22451782 C108.83100056 1.45443004 121.62889591 1.63116636 134.42950439 1.73721313 C135.61540435 1.74706527 135.61540435 1.74706527 136.82526188 1.75711643 C140.79195869 1.78974527 144.75866295 1.82133727 148.7253722 1.85241401 C181.5707445 2.11107602 214.41134445 2.55093342 247.25299072 3.11050415 C245.99743509 5.3179677 244.74066613 7.52472593 243.48321533 9.73110962 C243.13251732 10.34798141 242.78181931 10.96485321 242.42049408 11.60041809 C239.0201363 17.56284718 235.43787079 23.40562049 231.81549072 29.23550415 C230.40979645 31.50848527 229.00468694 33.78181456 227.60064697 36.05581665 C227.24302277 36.63470642 226.88539856 37.21359619 226.51693726 37.81002808 C222.55983478 44.22181978 218.65601943 50.66571037 214.75299072 57.11050415 C208.56501143 67.32442113 202.32933523 77.50776316 196.06158447 87.67300415 C191.76879613 94.6381805 187.50076416 101.61779272 183.25299072 108.61050415 C178.34442842 116.69101038 173.40264522 124.75030277 168.44049072 132.79800415 C162.41099945 142.57751806 156.43315169 152.38689159 150.48092651 162.21353149 C146.94852752 168.04404431 143.4118147 173.87137743 139.81939697 179.66519165 C139.32026257 180.47122627 138.82112818 181.27726088 138.30686849 182.10772079 C137.26386471 183.77906088 136.21074916 185.44418899 135.1420837 187.09923846 C132.15894256 191.7739792 129.5768889 196.44207815 127.26749325 201.48655605 C119.35438981 217.95244244 119.35438981 217.95244244 112.5472405 221.53420758 C104.88175045 223.75799262 97.0247384 223.24743736 89.13214111 222.94863892 C86.50927917 222.94157704 83.8863679 222.94556516 81.26353455 222.95970154 C75.64094458 222.97273797 70.0256717 222.89516052 64.40492439 222.75375557 C56.27988495 222.54948289 48.15833891 222.48536905 40.03101056 222.45405578 C26.84331863 222.3995013 13.6595192 222.23359616 0.47393799 221.99649048 C-12.32501912 221.76657826 -25.12291447 221.58984194 -37.92352295 221.48379517 C-39.10942291 221.47394304 -39.10942291 221.47394304 -40.31928044 221.46389187 C-44.28597725 221.43126303 -48.25268151 221.39967103 -52.21939075 221.36859429 C-85.06476306 221.10993228 -117.90536301 220.67007488 -150.74700928 220.11050415 C-149.49367744 217.9066874 -148.23910047 215.70359475 -146.98382568 213.50088501 C-146.63401138 212.88548607 -146.28419708 212.27008713 -145.92378235 211.63603973 C-142.46048428 205.56295366 -138.80984874 199.61205486 -135.12200928 193.67300415 C-133.71267387 191.39335155 -132.30377641 189.11343391 -130.89544678 186.8331604 C-130.54455994 186.26549957 -130.1936731 185.69783875 -129.83215332 185.11297607 C-126.44382326 179.6282656 -123.0925031 174.12140816 -119.74700928 168.61050415 C-114.83870009 160.5298449 -109.89662636 152.47072621 -104.93450928 144.42300415 C-99.33540172 135.34073085 -93.77605585 126.23549891 -88.24700928 117.11050415 C-82.05839149 106.89697021 -75.82335798 96.71325194 -69.55560303 86.54800415 C-64.68535584 78.64588372 -59.85151045 70.72231741 -55.03314209 62.78848267 C-50.07380369 54.62968415 -45.06976914 46.4987524 -40.04193115 38.38198853 C-39.4405835 37.40810181 -38.83923584 36.43421509 -38.21966553 35.43081665 C-37.2464792 33.92312289 -37.2464792 33.92312289 -36.25363255 32.38497066 C-34.19279163 29.04399895 -32.57179681 25.59834668 -30.94728756 22.02665806 C-23.4423411 6.45449661 -17.62165364 -0.05306305 0 0 Z " fill="#000000" transform="translate(350.74700927734375,1005.8894958496094)"/>
</svg>
